<svg width="546" height="514" viewBox="0 0 546 514" fill="none" xmlns="http://www.w3.org/2000/svg">
<path d="M545.056 154.825C550.068 199.997 525.662 407.402 512.833 505.458C409.005 457.189 224.62 487.244 204.928 491.797L204.689 491.853C183.614 496.727 -22.3987 544.378 -17.0493 482.69C-11.6789 420.76 25.9141 406.188 194.188 379.777C362.461 353.365 352.615 184.879 352.615 122.949C481.505 96.5377 516.413 144.807 545.056 154.825Z" fill="#F4F8FD"/>
<path d="M133.322 10.9282C54.5563 29.1434 -33.1608 80.1448 -22.42 263.202L6.22228 189.432L47.3955 101.091L133.322 54.6434V10.9282Z" fill="#F4F8FD"/>
<path d="M121.687 301.454C27.8833 334.969 -15.8559 425.921 -26 467.208C-26 453.243 -25.2839 391.07 -22.4197 254.095C-19.5555 117.121 82.602 55.5548 133.323 41.8938V79.234C81.4085 81.9662 28.5993 127.503 30.3895 193.076C32.1796 258.649 81.4085 288.703 121.687 301.454Z" fill="#F4F8FD"/>
<path d="M103.785 369.759C59.0318 377.045 16.6651 410.135 2.64227 427.136C32.0006 358.648 112.139 326.954 148.539 319.669V303.275C157.49 299.632 250.577 287.793 250.577 187.612C250.577 107.467 182.552 81.3591 148.539 78.3234V37.3402C194.367 8.19663 295.927 0.303579 340.979 0C341.278 61.0194 339.189 193.987 317.707 262.292C296.226 330.597 195.784 354.782 103.785 369.759Z" fill="#F4F8FD"/>
<ellipse cx="140.483" cy="189.434" rx="93.9825" ry="95.6273" fill="#F4F8FD"/>
</svg>
